<svg xmlns="http://www.w3.org/2000/svg" viewBox="0 0 16.4 14.35"><defs><style>.cls-1{fill:#0088be;}</style></defs><title>icon-rooms</title><g id="Layer_2" data-name="Layer 2"><g id="Artwork"><path class="cls-1" d="M4.78,6.83a.69.69,0,0,0-.68.69V8.89h8.2V7.52a.68.68,0,0,0-.68-.69Zm9.91-3.41A1.7,1.7,0,0,0,13,5.13V9.57H3.42V5.13a1.71,1.71,0,1,0-2,1.67v6.87a.67.67,0,0,0,.68.68h.68a.68.68,0,0,0,.69-.68H13a.67.67,0,0,0,.68.68h.68a.68.68,0,0,0,.69-.68V6.8a1.71,1.71,0,0,0-.35-3.38ZM4.1,5.13v1h8.2v-1a2.36,2.36,0,0,1,2-2.46V1.37A1.36,1.36,0,0,0,13,0H3.42A1.37,1.37,0,0,0,2.05,1.37v1.3A2.36,2.36,0,0,1,4.1,5.13Z"/></g></g></svg>