<svg xmlns="http://www.w3.org/2000/svg" viewBox="0 0 18.37 13.01"><defs><style>.cls-1{fill:#0088be;}</style></defs><title>icon-bath</title><g id="Layer_2" data-name="Layer 2"><g id="Artwork"><path class="cls-1" d="M.77,7.65A3.81,3.81,0,0,0,2.69,11l-1,1a.63.63,0,0,0,0,.88.63.63,0,0,0,.88,0L4,11.43a4,4,0,0,0,.6.05h9.19a4,4,0,0,0,.6-.05l1.4,1.4a.63.63,0,0,0,.88,0,.63.63,0,0,0,0-.88l-1-1a3.82,3.82,0,0,0,1.93-3.32V6.12H.77ZM17.61,4.21H2.68V2.3A1.15,1.15,0,0,1,3.83,1.05,1.25,1.25,0,0,1,5.07,2.3h1a2.3,2.3,0,1,0-4.59,0V4.21H.77A.76.76,0,0,0,0,5v.38H18.37V5A.76.76,0,0,0,17.61,4.21Z"/></g></g></svg>