<svg xmlns="http://www.w3.org/2000/svg" viewBox="0 0 166.88 33.96"><defs><style>.cls-1{fill:#55ac93;}.cls-2{fill:#262638;}</style></defs><title>logo-rightmove</title><g id="Layer_2" data-name="Layer 2"><g id="Artwork"><path class="cls-1" d="M161.49,18.66h2.87V9.89l-7.88-6.62-7.87,6.62v8.77h2.86l5-4.25,5,4.25m3.2,2.5h-4.11l-4.1-3.46-4.11,3.46h-4.12a2.13,2.13,0,0,1-1.52-.62A2.23,2.23,0,0,1,146.1,19l0-9.26a2.14,2.14,0,0,1,.63-1.52l.09-.09L156.48,0l9.76,8.21a2.13,2.13,0,0,1,.62,1.52l0,9.26a2.26,2.26,0,0,1-.62,1.55,2.16,2.16,0,0,1-1.57.62"/><path class="cls-2" d="M85.12,12.08a7.7,7.7,0,0,0-2.84.54A6.29,6.29,0,0,0,80,14.14a5.4,5.4,0,0,0-.67-.72,4.51,4.51,0,0,0-1-.67,5.71,5.71,0,0,0-1.25-.49,6,6,0,0,0-1.63-.18,5.61,5.61,0,0,0-4.46,2l-.15-1.63H66.33V27.25h4.72v-8A3.27,3.27,0,0,1,71.88,17,2.81,2.81,0,0,1,74.07,16a2.26,2.26,0,0,1,1.81.72,3.13,3.13,0,0,1,.6,2v8.44h4.57v-8A3.27,3.27,0,0,1,81.88,17,2.77,2.77,0,0,1,84.07,16a2.26,2.26,0,0,1,1.81.72,3.13,3.13,0,0,1,.6,2v8.44H91.2V18.1a6,6,0,0,0-1.56-4.39,6,6,0,0,0-4.52-1.63m19.35,9.19a3.61,3.61,0,0,1-.72,1.28,3.4,3.4,0,0,1-1.16.89,3.47,3.47,0,0,1-1.56.34,3.57,3.57,0,0,1-1.59-.34,3.34,3.34,0,0,1-1.17-.89,4.39,4.39,0,0,1-1-2.75,4.64,4.64,0,0,1,.25-1.48,3.6,3.6,0,0,1,.71-1.25,3.77,3.77,0,0,1,1.17-.9,3.71,3.71,0,0,1,1.59-.33,3.54,3.54,0,0,1,1.56.33,3.36,3.36,0,0,1,1.16.9,3.62,3.62,0,0,1,.72,1.25,5.05,5.05,0,0,1,0,2.95m2.51-7a7.92,7.92,0,0,0-2.6-1.7A8.81,8.81,0,0,0,101,11.9a8.46,8.46,0,0,0-3.36.63,7.9,7.9,0,0,0-2.62,1.7,8.26,8.26,0,0,0-1.7,2.5,8.26,8.26,0,0,0,0,6.18,7.3,7.3,0,0,0,1.7,2.5,7.81,7.81,0,0,0,2.62,1.7,9.25,9.25,0,0,0,6.71,0,7.92,7.92,0,0,0,2.6-1.7,7.67,7.67,0,0,0,1.67-2.5,8.13,8.13,0,0,0,0-6.18,7.67,7.67,0,0,0-1.67-2.5m14-1.81-3.51,9.73-3.64-9.73h-5.26l6.49,14.8h4.47l6.6-14.8Zm9.09,5.83a2.19,2.19,0,0,1,.22-1,2.69,2.69,0,0,1,.63-.89,3.34,3.34,0,0,1,1-.67,3.61,3.61,0,0,1,1.45-.27,3.41,3.41,0,0,1,1.41.27,3.09,3.09,0,0,1,1,.67,2.61,2.61,0,0,1,.59.89,2.66,2.66,0,0,1,.2,1h-6.51m11,2.15a11.17,11.17,0,0,0-.49-3.42,7.5,7.5,0,0,0-1.46-2.69,6.67,6.67,0,0,0-2.37-1.74,7.82,7.82,0,0,0-3.29-.63,8.44,8.44,0,0,0-3.35.65,7.34,7.34,0,0,0-4.05,4.23,8.41,8.41,0,0,0-.54,3A8.93,8.93,0,0,0,126.1,23a6.65,6.65,0,0,0,1.68,2.5,8,8,0,0,0,2.68,1.64,10.43,10.43,0,0,0,3.54.58,11.6,11.6,0,0,0,4.61-.9,7.09,7.09,0,0,0,1.36-.71,8.3,8.3,0,0,1,.79-.52l-1.95-2.86a10.81,10.81,0,0,1-1.68.9,7.58,7.58,0,0,1-3,.51,4.37,4.37,0,0,1-2.93-.89,2.78,2.78,0,0,1-1.1-2.11h11V20.4ZM62.55,23.82a3,3,0,0,1-1.25.25,1.65,1.65,0,0,1-1.39-.58,2.71,2.71,0,0,1-.45-1.66V16h4V12.42h-4V7.94H54.74v4.48H52.3V16h2.44v5.6A10.1,10.1,0,0,0,55,24.12a4.7,4.7,0,0,0,1,1.94,4.42,4.42,0,0,0,1.81,1.25,7,7,0,0,0,2.75.45A7.78,7.78,0,0,0,65,26.37l-1.5-3.06a4.74,4.74,0,0,1-.94.51M9,12.12a4.68,4.68,0,0,0-2.68.7,7.14,7.14,0,0,0-1.63,1.45l-.16-1.85H0v14.8H4.72V19.89a3.54,3.54,0,0,1,1-2.73,3.78,3.78,0,0,1,2.71-1,5.5,5.5,0,0,1,1.41.15l.76-4a2.53,2.53,0,0,0-.59-.14,7.44,7.44,0,0,0-1-.07m2.89,15.1H16.6V12.42H11.88Zm17.34-6.59a2.67,2.67,0,0,1-.79,2.12,3.3,3.3,0,0,1-2.23.67,2.9,2.9,0,0,1-2.35-.94A3.75,3.75,0,0,1,23,19.93a5.09,5.09,0,0,1,.25-1.56,3.41,3.41,0,0,1,.76-1.3,4,4,0,0,1,1.25-.9,4.37,4.37,0,0,1,1.77-.33,5.73,5.73,0,0,1,1.21.09,4.37,4.37,0,0,1,.91.24v4.46ZM27.16,12.1a10.89,10.89,0,0,0-3.63.56,8.15,8.15,0,0,0-2.79,1.63,7.22,7.22,0,0,0-1.81,2.53,8.05,8.05,0,0,0-.65,3.27,8.14,8.14,0,0,0,.47,2.84,6.21,6.21,0,0,0,1.36,2.24,6.08,6.08,0,0,0,2.19,1.47,7.61,7.61,0,0,0,2.93.52,5.9,5.9,0,0,0,3.94-1.23V27a3.12,3.12,0,0,1-.92,2.46,3.66,3.66,0,0,1-2.52.83A8.3,8.3,0,0,1,23.44,30a8.17,8.17,0,0,1-1.94-.83l-1.9,3.22a9.89,9.89,0,0,0,2.82,1.21A15.84,15.84,0,0,0,26,34a8.7,8.7,0,0,0,5.75-1.75c1.41-1.16,2.1-3,2.1-5.41V13.2a20.74,20.74,0,0,0-3.11-.78,19.6,19.6,0,0,0-3.6-.32m18.41,0a7.67,7.67,0,0,0-2.53.45,4.67,4.67,0,0,0-2,1.32V6.17h-4.7V27.25h4.72v-8a4,4,0,0,1,.2-1.25,3.38,3.38,0,0,1,.59-1,2.75,2.75,0,0,1,1-.71A3.24,3.24,0,0,1,44.18,16a2.46,2.46,0,0,1,1.84.71,2.82,2.82,0,0,1,.69,2V27.2h4.7V18.05a5.93,5.93,0,0,0-1.59-4.47,5.92,5.92,0,0,0-4.25-1.5M16,6.64a2.33,2.33,0,0,0-.8-.44A2.58,2.58,0,0,0,14.25,6a2.51,2.51,0,0,0-.94.16,2.75,2.75,0,0,0-.83.44,2.64,2.64,0,0,0-.58.74,2.56,2.56,0,0,0-.22,1,2.06,2.06,0,0,0,.22,1,2.33,2.33,0,0,0,.58.74,2.37,2.37,0,0,0,.83.44,3.43,3.43,0,0,0,.94.16,2.51,2.51,0,0,0,.94-.16,2.21,2.21,0,0,0,1.36-1.18,2.31,2.31,0,0,0,.23-1,2.22,2.22,0,0,0-.23-1A1.8,1.8,0,0,0,16,6.64"/></g></g></svg>