<svg xmlns="http://www.w3.org/2000/svg" viewBox="0 0 184.9 38.04"><defs><style>.cls-1{fill:#558bbe;}.cls-2{fill:#023e5b;}.cls-3{fill:#cf1d2e;}</style></defs><title>logo-onthemarket</title><g id="Layer_2" data-name="Layer 2"><g id="Artwork"><path class="cls-1" d="M31.06,10.49a1.23,1.23,0,1,1,2.45,0v.58l.05.06a5.08,5.08,0,0,1,4.09-2c2.28,0,5.15,1.45,5.15,5.62V23a1.23,1.23,0,1,1-2.45,0V14.94a3.43,3.43,0,1,0-6.84,0V23a1.23,1.23,0,1,1-2.45,0Z"/><path class="cls-1" d="M46.94,6.62h-3.7A1.07,1.07,0,0,1,42,5.48a1.07,1.07,0,0,1,1.2-1.14h9.85a1.07,1.07,0,0,1,1.2,1.14,1.07,1.07,0,0,1-1.2,1.14h-3.7V23a1.23,1.23,0,1,1-2.45,0V6.62"/><path class="cls-1" d="M64.5,14.94a3.43,3.43,0,1,0-6.85,0V23a1.23,1.23,0,1,1-2.45,0V4a1.23,1.23,0,1,1,2.45,0v7.1l.06.06a5.07,5.07,0,0,1,4.09-2c2.28,0,5.15,1.45,5.15,5.62V23a1.23,1.23,0,1,1-2.45,0V14.94"/><path class="cls-1" d="M78.58,15.86c0-2.12-1.22-4.56-3.92-4.56-3-.12-4.12,2.31-4.2,4.56ZM70.46,17.7a4.21,4.21,0,0,0,4.37,4.5c3.25,0,4.09-2,5-2a1,1,0,0,1,.89,1.08c0,1.2-3,3-5.92,3-4.73,0-6.79-3.65-6.79-7.57s2.5-7.57,6.65-7.57S81,12.83,81,16.39c0,.86-.31,1.31-1.36,1.31H70.46"/><path class="cls-2" d="M84.29,23.26A1.13,1.13,0,0,1,83,24.32a1.1,1.1,0,0,1-1.14-1.25A6.27,6.27,0,0,1,82,22L84.67,6c.26-1.4,1-1.87,1.93-1.87a1.61,1.61,0,0,1,1.78,1.28L92.61,20h0L96.9,5.45a1.6,1.6,0,0,1,1.78-1.28c.89,0,1.67.47,1.92,1.87L103.3,22a7.38,7.38,0,0,1,.14,1.11,1.1,1.1,0,0,1-1.14,1.25c-.64,0-1.2-.19-1.31-1.06L98.68,7.34h-.06l-4.73,16a1.29,1.29,0,0,1-2.51,0l-4.73-16H86.6L84.29,23.26"/><path class="cls-2" d="M110.33,22.21c3,0,4.07-3,4.07-5.46s-1.06-5.45-4.07-5.45-4.06,2.95-4.06,5.45,1.06,5.46,4.06,5.46m6.38.91a1.13,1.13,0,0,1-1.14,1.2,1.12,1.12,0,0,1-1.15-1.2v-1h0a4.79,4.79,0,0,1-4,2.23c-4.17,0-6.51-3.65-6.51-7.57s2.34-7.57,6.51-7.57a5.15,5.15,0,0,1,4,2h0v-.78a1.12,1.12,0,0,1,1.15-1.2,1.13,1.13,0,0,1,1.14,1.2Z"/><path class="cls-2" d="M118.71,10.49a1.23,1.23,0,1,1,2.45,0v1.25h.06c.55-1.14,1.92-2.56,3.34-2.56a1.24,1.24,0,0,1,1.36,1.25c0,.7-.5,1.14-1.53,1.34a3.85,3.85,0,0,0-3.23,4.2v7a1.23,1.23,0,1,1-2.45,0V10.49"/><path class="cls-2" d="M127,4a1.23,1.23,0,1,1,2.45,0V14.41l5.34-4.48a2.46,2.46,0,0,1,1.4-.75,1,1,0,0,1,1,1.08,1.27,1.27,0,0,1-.61,1.06L131,15.72l6.46,6.37a1.58,1.58,0,0,1,.58,1.26,1,1,0,0,1-1,1c-.58,0-.83-.17-1.42-.75l-6.17-6.46V23A1.23,1.23,0,1,1,127,23V4"/><path class="cls-2" d="M148.25,15.86c0-2.12-1.22-4.56-3.92-4.56-3-.12-4.12,2.31-4.2,4.56h8.12m-8.12,1.84a4.21,4.21,0,0,0,4.37,4.5c3.25,0,4.09-2,5-2a1,1,0,0,1,.9,1.08c0,1.2-3,3-5.93,3-4.73,0-6.79-3.65-6.79-7.57s2.5-7.57,6.65-7.57,6.37,3.65,6.37,7.21c0,.86-.3,1.31-1.36,1.31h-9.21"/><path class="cls-2" d="M152.88,6.15a1.23,1.23,0,1,1,2.45,0V9.34h1c.81,0,1.22.39,1.22,1.06s-.41,1.06-1.22,1.06h-1V23a1.23,1.23,0,1,1-2.45,0V11.46h-1c-.81,0-1.23-.39-1.23-1.06s.42-1.06,1.23-1.06h1V6.15"/><path class="cls-1" d="M158.44,22.76a.74.74,0,0,1,0,1.48.74.74,0,1,1,0-1.48"/><path class="cls-1" d="M163.73,16.36c1.31,0,2.07.45,2.07,1a.54.54,0,0,1-.52.54c-.49,0-.68-.41-1.55-.41-1.58,0-2.2,1.54-2.2,2.84s.62,2.84,2.2,2.84c.9,0,1.13-.43,1.54-.43a.47.47,0,0,1,.49.53c0,.48-.71,1-2,1-2.34,0-3.48-1.89-3.48-3.94s1.14-3.94,3.48-3.94"/><path class="cls-1" d="M169.71,23.14c1.57,0,2.12-1.54,2.12-2.84s-.55-2.84-2.12-2.84S167.6,19,167.6,20.3s.55,2.84,2.11,2.84m0-6.78c2.17,0,3.39,1.9,3.39,3.94s-1.22,3.94-3.39,3.94-3.39-1.9-3.39-3.94,1.22-3.94,3.39-3.94"/><path class="cls-1" d="M179.06,19.24a1.65,1.65,0,1,0-3.29,0v4.32a.64.64,0,1,1-1.27,0V17a.64.64,0,1,1,1.27,0v.23l0,0a2.22,2.22,0,0,1,1.94-.94,2.37,2.37,0,0,1,2.12,1.3,2.68,2.68,0,0,1,2.36-1.3,2.64,2.64,0,0,1,2.68,2.92v4.28a.64.64,0,1,1-1.27,0V19.24a1.65,1.65,0,1,0-3.29,0v4.32a.64.64,0,1,1-1.28,0V19.24"/><path class="cls-2" d="M14.69,25.25A10.57,10.57,0,1,1,25.25,14.69,10.56,10.56,0,0,1,14.69,25.25M14.69,0A14.69,14.69,0,0,0,6.24,26.7L14.57,38l8.24-11.11A14.69,14.69,0,0,0,14.69,0"/><path class="cls-3" d="M7.28,14.69a7.41,7.41,0,1,1,7.41,7.41,7.4,7.4,0,0,1-7.41-7.41"/><path class="cls-1" d="M31.06,10.49a1.23,1.23,0,1,1,2.45,0v.58l.05.06a5.08,5.08,0,0,1,4.09-2c2.28,0,5.15,1.45,5.15,5.62V23a1.23,1.23,0,1,1-2.45,0V14.94a3.43,3.43,0,1,0-6.84,0V23a1.23,1.23,0,1,1-2.45,0Z"/><path class="cls-1" d="M46.94,6.62h-3.7A1.07,1.07,0,0,1,42,5.48a1.07,1.07,0,0,1,1.2-1.14h9.85a1.07,1.07,0,0,1,1.2,1.14,1.07,1.07,0,0,1-1.2,1.14h-3.7V23a1.23,1.23,0,1,1-2.45,0V6.62"/><path class="cls-1" d="M64.5,14.94a3.43,3.43,0,1,0-6.85,0V23a1.23,1.23,0,1,1-2.45,0V4a1.23,1.23,0,1,1,2.45,0v7.1l.06.06a5.07,5.07,0,0,1,4.09-2c2.28,0,5.15,1.45,5.15,5.62V23a1.23,1.23,0,1,1-2.45,0V14.94"/><path class="cls-1" d="M78.58,15.86c0-2.12-1.22-4.56-3.92-4.56-3-.12-4.12,2.31-4.2,4.56ZM70.46,17.7a4.21,4.21,0,0,0,4.37,4.5c3.25,0,4.09-2,5-2a1,1,0,0,1,.89,1.08c0,1.2-3,3-5.92,3-4.73,0-6.79-3.65-6.79-7.57s2.5-7.57,6.65-7.57S81,12.83,81,16.39c0,.86-.31,1.31-1.36,1.31H70.46"/><path class="cls-2" d="M84.29,23.26A1.13,1.13,0,0,1,83,24.32a1.1,1.1,0,0,1-1.14-1.25A6.27,6.27,0,0,1,82,22L84.67,6c.26-1.4,1-1.87,1.93-1.87a1.61,1.61,0,0,1,1.78,1.28L92.61,20h0L96.9,5.45a1.6,1.6,0,0,1,1.78-1.28c.89,0,1.67.47,1.92,1.87L103.3,22a7.38,7.38,0,0,1,.14,1.11,1.1,1.1,0,0,1-1.14,1.25c-.64,0-1.2-.19-1.31-1.06L98.68,7.34h-.06l-4.73,16a1.29,1.29,0,0,1-2.51,0l-4.73-16H86.6L84.29,23.26"/><path class="cls-2" d="M110.33,22.21c3,0,4.07-3,4.07-5.46s-1.06-5.45-4.07-5.45-4.06,2.95-4.06,5.45,1.06,5.46,4.06,5.46m6.38.91a1.13,1.13,0,0,1-1.14,1.2,1.12,1.12,0,0,1-1.15-1.2v-1h0a4.79,4.79,0,0,1-4,2.23c-4.17,0-6.51-3.65-6.51-7.57s2.34-7.57,6.51-7.57a5.15,5.15,0,0,1,4,2h0v-.78a1.12,1.12,0,0,1,1.15-1.2,1.13,1.13,0,0,1,1.14,1.2Z"/><path class="cls-2" d="M118.71,10.49a1.23,1.23,0,1,1,2.45,0v1.25h.06c.55-1.14,1.92-2.56,3.34-2.56a1.24,1.24,0,0,1,1.36,1.25c0,.7-.5,1.14-1.53,1.34a3.85,3.85,0,0,0-3.23,4.2v7a1.23,1.23,0,1,1-2.45,0V10.49"/><path class="cls-2" d="M127,4a1.23,1.23,0,1,1,2.45,0V14.41l5.34-4.48a2.46,2.46,0,0,1,1.4-.75,1,1,0,0,1,1,1.08,1.27,1.27,0,0,1-.61,1.06L131,15.72l6.46,6.37a1.58,1.58,0,0,1,.58,1.26,1,1,0,0,1-1,1c-.58,0-.83-.17-1.42-.75l-6.17-6.46V23A1.23,1.23,0,1,1,127,23V4"/><path class="cls-2" d="M148.25,15.86c0-2.12-1.22-4.56-3.92-4.56-3-.12-4.12,2.31-4.2,4.56h8.12m-8.12,1.84a4.21,4.21,0,0,0,4.37,4.5c3.25,0,4.09-2,5-2a1,1,0,0,1,.9,1.08c0,1.2-3,3-5.93,3-4.73,0-6.79-3.65-6.79-7.57s2.5-7.57,6.65-7.57,6.37,3.65,6.37,7.21c0,.86-.3,1.31-1.36,1.31h-9.21"/><path class="cls-2" d="M152.88,6.15a1.23,1.23,0,1,1,2.45,0V9.34h1c.81,0,1.22.39,1.22,1.06s-.41,1.06-1.22,1.06h-1V23a1.23,1.23,0,1,1-2.45,0V11.46h-1c-.81,0-1.23-.39-1.23-1.06s.42-1.06,1.23-1.06h1V6.15"/><path class="cls-1" d="M158.44,22.76a.74.74,0,0,1,0,1.48.74.74,0,1,1,0-1.48"/><path class="cls-1" d="M163.73,16.36c1.31,0,2.07.45,2.07,1a.54.54,0,0,1-.52.54c-.49,0-.68-.41-1.55-.41-1.58,0-2.2,1.54-2.2,2.84s.62,2.84,2.2,2.84c.9,0,1.13-.43,1.54-.43a.47.47,0,0,1,.49.53c0,.48-.71,1-2,1-2.34,0-3.48-1.89-3.48-3.94s1.14-3.94,3.48-3.94"/><path class="cls-1" d="M169.71,23.14c1.57,0,2.12-1.54,2.12-2.84s-.55-2.84-2.12-2.84S167.6,19,167.6,20.3s.55,2.84,2.11,2.84m0-6.78c2.17,0,3.39,1.9,3.39,3.94s-1.22,3.94-3.39,3.94-3.39-1.9-3.39-3.94,1.22-3.94,3.39-3.94"/><path class="cls-1" d="M179.06,19.24a1.65,1.65,0,1,0-3.29,0v4.32a.64.64,0,1,1-1.27,0V17a.64.64,0,1,1,1.27,0v.23l0,0a2.22,2.22,0,0,1,1.94-.94,2.37,2.37,0,0,1,2.12,1.3,2.68,2.68,0,0,1,2.36-1.3,2.64,2.64,0,0,1,2.68,2.92v4.28a.64.64,0,1,1-1.27,0V19.24a1.65,1.65,0,1,0-3.29,0v4.32a.64.64,0,1,1-1.28,0V19.24"/><path class="cls-2" d="M14.69,25.25A10.57,10.57,0,1,1,25.25,14.69,10.56,10.56,0,0,1,14.69,25.25M14.69,0A14.69,14.69,0,0,0,6.24,26.7L14.57,38l8.24-11.11A14.69,14.69,0,0,0,14.69,0"/><path class="cls-3" d="M7.28,14.69a7.41,7.41,0,1,1,7.41,7.41,7.4,7.4,0,0,1-7.41-7.41"/></g></g></svg>