<svg xmlns="http://www.w3.org/2000/svg" viewBox="0 0 132.65 49.78"><defs><style>.cls-1{fill:#5a2161;}.cls-2{fill:#fff;}</style></defs><title>logo-zoopla</title><g id="Layer_2" data-name="Layer 2"><g id="Artwork"><path class="cls-1" d="M0,0H132.65V49.78H0Z"/><path class="cls-2" d="M41.21,30.6a5.71,5.71,0,1,1,5.67-5.68,5.68,5.68,0,0,1-5.67,5.68M41.32,15a9.94,9.94,0,1,0,9.79,9.87A9.92,9.92,0,0,0,41.32,15"/><path class="cls-2" d="M62.39,30.6a5.71,5.71,0,1,1,5.67-5.68,5.68,5.68,0,0,1-5.67,5.68M62.5,15a9.94,9.94,0,1,0,9.79,9.87A9.92,9.92,0,0,0,62.5,15"/><path class="cls-2" d="M97.16,9.17a2.19,2.19,0,0,0-2.2,2.2h0V32.62a2.2,2.2,0,1,0,4.4,0h0V11.37a2.2,2.2,0,0,0-2.2-2.2"/><path class="cls-2" d="M83.68,30.6a5.71,5.71,0,1,1,5.6-5.78,5.67,5.67,0,0,1-5.6,5.78m0-15.64a9.88,9.88,0,0,0-5.56,1.71h0A2.23,2.23,0,0,0,76,15a2.18,2.18,0,0,0-2.17,2.21V38.41a2.17,2.17,0,1,0,4.34,0v-5.3A9.91,9.91,0,1,0,83.68,15"/><path class="cls-2" d="M110.61,30.6a5.71,5.71,0,1,1,5.67-5.68,5.68,5.68,0,0,1-5.67,5.68M118.33,15a2.23,2.23,0,0,0-2.17,1.71A9.78,9.78,0,0,0,110.6,15a9.93,9.93,0,1,0,5.56,18.15,2.23,2.23,0,0,0,2.17,1.71,2.17,2.17,0,0,0,2.17-2.2V17.16a2.17,2.17,0,0,0-2.17-2.2"/><path class="cls-2" d="M28.29,25.84A2.21,2.21,0,0,0,26.08,28v2.24H18l11.35-16.6a2.76,2.76,0,0,0,.49-1.58,2.8,2.8,0,0,0-2.75-2.79H14.34a2.2,2.2,0,1,0,0,4.4H24L12.68,30.24a3.12,3.12,0,0,0-.54,1.65,2.79,2.79,0,0,0,2.8,2.79H30.49V28a2.21,2.21,0,0,0-2.2-2.2"/></g></g></svg>