<svg xmlns="http://www.w3.org/2000/svg" viewBox="0 0 301.24 85.85"><defs><style>.cls-1{fill:#0088be;}.cls-2{fill:#c8c600;}</style></defs><title>logo</title><g id="Layer_2" data-name="Layer 2"><g id="Artwork"><g id="Header"><path class="cls-1" d="M104,45a.79.79,0,0,1-.22.62.8.8,0,0,1-.5.19H96.6a6.25,6.25,0,0,0,.17,1.5,2.92,2.92,0,0,0,.56,1.16,2.48,2.48,0,0,0,1,.73,3.91,3.91,0,0,0,1.54.26,6.12,6.12,0,0,0,1.28-.12,5.83,5.83,0,0,0,1-.26c.28-.1.5-.18.68-.26a1.06,1.06,0,0,1,.4-.12.23.23,0,0,1,.14,0,.27.27,0,0,1,.09.12.55.55,0,0,1,0,.22,3,3,0,0,1,0,.34,1.93,1.93,0,0,1,0,.25l0,.19a.88.88,0,0,1,0,.15.63.63,0,0,1-.11.13,1.52,1.52,0,0,1-.36.2,5.73,5.73,0,0,1-.78.27,10.53,10.53,0,0,1-1.11.24,8.29,8.29,0,0,1-1.35.11,6.31,6.31,0,0,1-2.18-.35,4,4,0,0,1-1.57-1,4.44,4.44,0,0,1-1-1.71,8.13,8.13,0,0,1-.32-2.39A7.67,7.67,0,0,1,95,43.14a5.16,5.16,0,0,1,1-1.76,4.23,4.23,0,0,1,1.53-1.1,5.44,5.44,0,0,1,4,0,4,4,0,0,1,1.37,1,4.05,4.05,0,0,1,.78,1.5,6.58,6.58,0,0,1,.26,1.86Zm-1.86-.55a3.33,3.33,0,0,0-.65-2.28,2.46,2.46,0,0,0-2-.83,2.61,2.61,0,0,0-2.07.94,3.38,3.38,0,0,0-.54,1,4.24,4.24,0,0,0-.21,1.18Zm11,3.28a3.17,3.17,0,0,1-.29,1.37,2.7,2.7,0,0,1-.81,1,3.51,3.51,0,0,1-1.25.63,5.74,5.74,0,0,1-1.6.21,6.59,6.59,0,0,1-1-.08,5.5,5.5,0,0,1-.87-.22,4.33,4.33,0,0,1-.66-.26,1.85,1.85,0,0,1-.39-.26.67.67,0,0,1-.18-.31,2.57,2.57,0,0,1-.05-.55,1.94,1.94,0,0,1,0-.36,1.14,1.14,0,0,1,0-.23.34.34,0,0,1,.1-.13.33.33,0,0,1,.14,0,.8.8,0,0,1,.36.15q.24.15.6.33a5.12,5.12,0,0,0,.83.33,3.73,3.73,0,0,0,1.11.15,3.25,3.25,0,0,0,.85-.1,1.84,1.84,0,0,0,.65-.29,1.41,1.41,0,0,0,.44-.5,1.59,1.59,0,0,0,.15-.72,1.18,1.18,0,0,0-.22-.71,2.09,2.09,0,0,0-.58-.52,4.25,4.25,0,0,0-.8-.39l-.93-.37a8.5,8.5,0,0,1-.92-.43,3.41,3.41,0,0,1-.81-.58,2.75,2.75,0,0,1-.58-.83,2.88,2.88,0,0,1-.22-1.15,2.94,2.94,0,0,1,.23-1.14,2.55,2.55,0,0,1,.69-1,3.36,3.36,0,0,1,1.15-.65,4.56,4.56,0,0,1,1.6-.25,4.25,4.25,0,0,1,.8.07,4.37,4.37,0,0,1,.73.17,3.35,3.35,0,0,1,.55.21,2.27,2.27,0,0,1,.35.21.6.6,0,0,1,.16.16.53.53,0,0,1,.05.15,1,1,0,0,1,0,.21,2.63,2.63,0,0,1,0,.3c0,.12,0,.23,0,.33a.7.7,0,0,1-.06.23.33.33,0,0,1-.09.13.28.28,0,0,1-.13,0A.67.67,0,0,1,112,42a3.55,3.55,0,0,0-.49-.26,5.68,5.68,0,0,0-.71-.26,3.29,3.29,0,0,0-1.76,0,1.64,1.64,0,0,0-.59.3,1.21,1.21,0,0,0-.34.47,1.37,1.37,0,0,0-.12.58,1.17,1.17,0,0,0,.22.73,2.25,2.25,0,0,0,.58.52,4.82,4.82,0,0,0,.82.4l.93.37c.32.13.63.27.94.43a3,3,0,0,1,.82.57,2.46,2.46,0,0,1,.58.8A2.57,2.57,0,0,1,113.08,47.72Zm7.61,2a2.27,2.27,0,0,1,0,.51.57.57,0,0,1-.14.28.84.84,0,0,1-.27.17,2.09,2.09,0,0,1-.4.13l-.49.08a3,3,0,0,1-.52,0,3.85,3.85,0,0,1-1.34-.21,2.13,2.13,0,0,1-.91-.63,2.45,2.45,0,0,1-.52-1.06,6.1,6.1,0,0,1-.17-1.51V41.64h-1.4a.29.29,0,0,1-.27-.18,1.23,1.23,0,0,1-.1-.58,3.36,3.36,0,0,1,0-.36,1,1,0,0,1,.08-.24.33.33,0,0,1,.11-.14.47.47,0,0,1,.17,0h1.39V37.71a.33.33,0,0,1,0-.14.31.31,0,0,1,.15-.12.88.88,0,0,1,.28-.07,2.81,2.81,0,0,1,.45,0,2.86,2.86,0,0,1,.46,0,.88.88,0,0,1,.28.07.28.28,0,0,1,.14.12.24.24,0,0,1,0,.14V40.1h2.58a.42.42,0,0,1,.16,0,.43.43,0,0,1,.12.14,1,1,0,0,1,.07.24,3.36,3.36,0,0,1,0,.36,1.23,1.23,0,0,1-.1.58.31.31,0,0,1-.27.18h-2.58v5.61a3.13,3.13,0,0,0,.31,1.57,1.16,1.16,0,0,0,1.1.53,2.16,2.16,0,0,0,.46-.05,2.42,2.42,0,0,0,.35-.11,2,2,0,0,0,.27-.1.42.42,0,0,1,.2-.05.2.2,0,0,1,.11,0,.17.17,0,0,1,.08.1,1.65,1.65,0,0,1,0,.21A3.11,3.11,0,0,1,120.69,49.72Zm9.74.75a.23.23,0,0,1-.09.2.65.65,0,0,1-.25.1,2.49,2.49,0,0,1-.45,0,2.91,2.91,0,0,1-.47,0,.59.59,0,0,1-.25-.1.25.25,0,0,1-.08-.2v-1a5,5,0,0,1-1.47,1.1,3.89,3.89,0,0,1-1.71.39,4.64,4.64,0,0,1-1.44-.21,2.93,2.93,0,0,1-1.1-.6,2.71,2.71,0,0,1-.7-1,3.13,3.13,0,0,1-.25-1.29,2.78,2.78,0,0,1,1.34-2.52,4.8,4.8,0,0,1,1.59-.62,9.66,9.66,0,0,1,2.11-.21h1.39v-.78a3.58,3.58,0,0,0-.13-1,1.75,1.75,0,0,0-.39-.74,1.73,1.73,0,0,0-.71-.45,3.35,3.35,0,0,0-1.08-.15,4.19,4.19,0,0,0-1.22.16,6.79,6.79,0,0,0-.95.36c-.27.13-.5.25-.68.36a.94.94,0,0,1-.41.16.29.29,0,0,1-.16,0,.58.58,0,0,1-.12-.14.9.9,0,0,1-.07-.23,2.69,2.69,0,0,1,0-.31,1.78,1.78,0,0,1,0-.44.55.55,0,0,1,.19-.3,2.17,2.17,0,0,1,.52-.35,4.84,4.84,0,0,1,.85-.35,7.3,7.3,0,0,1,1-.27,6.31,6.31,0,0,1,1.15-.11,5.91,5.91,0,0,1,1.85.25,3,3,0,0,1,1.23.72,2.82,2.82,0,0,1,.68,1.18,5.78,5.78,0,0,1,.21,1.64Zm-1.83-4.6H127a6.27,6.27,0,0,0-1.32.13,2.83,2.83,0,0,0-.93.38,1.65,1.65,0,0,0-.54.61,1.73,1.73,0,0,0-.17.81,1.61,1.61,0,0,0,.49,1.24,2,2,0,0,0,1.4.47,2.62,2.62,0,0,0,1.34-.37A5.83,5.83,0,0,0,128.6,48Zm10.24,3.85a2.17,2.17,0,0,1-.05.51.56.56,0,0,1-.13.28.84.84,0,0,1-.27.17,2,2,0,0,1-.41.13l-.48.08a3.12,3.12,0,0,1-.52,0,3.81,3.81,0,0,1-1.34-.21,2.23,2.23,0,0,1-.92-.63A2.57,2.57,0,0,1,134.2,49a6.66,6.66,0,0,1-.16-1.51V41.64h-1.41a.31.31,0,0,1-.27-.18,1.37,1.37,0,0,1-.1-.58,1.79,1.79,0,0,1,0-.36,1,1,0,0,1,.07-.24.28.28,0,0,1,.12-.14.42.42,0,0,1,.16,0H134V37.71a.23.23,0,0,1,0-.14.27.27,0,0,1,.15-.12.88.88,0,0,1,.28-.07,2.81,2.81,0,0,1,.45,0,3,3,0,0,1,.46,0,.88.88,0,0,1,.28.07.33.33,0,0,1,.14.12.24.24,0,0,1,0,.14V40.1h2.58a.42.42,0,0,1,.16,0,.33.33,0,0,1,.11.14.67.67,0,0,1,.08.24,3.36,3.36,0,0,1,0,.36,1.37,1.37,0,0,1-.1.58.31.31,0,0,1-.27.18h-2.58v5.61a3.26,3.26,0,0,0,.3,1.57,1.18,1.18,0,0,0,1.1.53,2,2,0,0,0,.46-.05,2.22,2.22,0,0,0,.36-.11,2.64,2.64,0,0,0,.27-.1.39.39,0,0,1,.2-.05.23.23,0,0,1,.11,0,.13.13,0,0,1,.07.1,1.42,1.42,0,0,1,.06.21A3.11,3.11,0,0,1,138.84,49.72ZM149.62,45a.79.79,0,0,1-.22.62.8.8,0,0,1-.5.19h-6.63a6.25,6.25,0,0,0,.17,1.5,2.92,2.92,0,0,0,.56,1.16,2.48,2.48,0,0,0,1,.73,3.91,3.91,0,0,0,1.54.26,6.12,6.12,0,0,0,1.28-.12,5.83,5.83,0,0,0,1-.26c.28-.1.5-.18.68-.26a1.06,1.06,0,0,1,.4-.12.23.23,0,0,1,.14,0,.27.27,0,0,1,.09.12.55.55,0,0,1,0,.22,3,3,0,0,1,0,.34,1.93,1.93,0,0,1,0,.25l0,.19a.88.88,0,0,1-.05.15.63.63,0,0,1-.11.13,1.52,1.52,0,0,1-.36.2,5.73,5.73,0,0,1-.78.27,10.53,10.53,0,0,1-1.11.24,8.2,8.2,0,0,1-1.35.11,6.31,6.31,0,0,1-2.18-.35,4,4,0,0,1-1.57-1,4.44,4.44,0,0,1-1-1.71,8.13,8.13,0,0,1-.32-2.39,7.67,7.67,0,0,1,.33-2.33,5.16,5.16,0,0,1,1-1.76,4.23,4.23,0,0,1,1.53-1.1,5.44,5.44,0,0,1,4,0,4,4,0,0,1,1.37,1,4.05,4.05,0,0,1,.78,1.5,6.58,6.58,0,0,1,.26,1.86Zm-1.86-.55a3.33,3.33,0,0,0-.65-2.28,2.46,2.46,0,0,0-2-.83,2.61,2.61,0,0,0-2.07.94,3.38,3.38,0,0,0-.54,1,4.24,4.24,0,0,0-.21,1.18Zm9.34,2.48a4,4,0,0,1,.17-1.16,3.86,3.86,0,0,1,.53-1.08,5.36,5.36,0,0,1,.93-1,10.44,10.44,0,0,1,1.39-1c-.3-.4-.55-.77-.76-1.1a8.39,8.39,0,0,1-.53-.91,4.07,4.07,0,0,1-.3-.81,4.13,4.13,0,0,1-.08-.78,3.72,3.72,0,0,1,.23-1.33,3,3,0,0,1,.75-1.11,3.73,3.73,0,0,1,1.34-.78,7.07,7.07,0,0,1,3.68-.07,3.3,3.3,0,0,1,1.2.6,2.56,2.56,0,0,1,.72,1,3.35,3.35,0,0,1,0,2.44,3.18,3.18,0,0,1-.68,1.06,6.68,6.68,0,0,1-1.2,1A20.51,20.51,0,0,1,162.74,43c.25.3.53.62.83.95s.61.67.93,1,.66.67,1,1,.68.64,1,.94a5.68,5.68,0,0,0,.4-.69,6.63,6.63,0,0,0,.31-.82,6.19,6.19,0,0,0,.27-1.78v-.4a.36.36,0,0,1,0-.19.26.26,0,0,1,.13-.12.54.54,0,0,1,.26-.07,2.81,2.81,0,0,1,.45,0h.42a1.72,1.72,0,0,1,.29,0,.3.3,0,0,1,.16.13.46.46,0,0,1,.05.23v.28a7.3,7.3,0,0,1-.11,1.23,8.13,8.13,0,0,1-.29,1.18,6.24,6.24,0,0,1-.46,1.1,6.36,6.36,0,0,1-.61,1c.34.27.63.49.88.67l.64.44a2.09,2.09,0,0,0,.44.23.71.71,0,0,0,.28.07h.21a.24.24,0,0,1,.17,0,.3.3,0,0,1,.09.18,2.07,2.07,0,0,1,0,.41c0,.19,0,.34,0,.45a.72.72,0,0,1,0,.25.34.34,0,0,1-.09.14.67.67,0,0,1-.25.1,1.92,1.92,0,0,1-.47,0,1.85,1.85,0,0,1-.49-.08,3.12,3.12,0,0,1-.63-.27c-.23-.14-.51-.31-.83-.54s-.69-.5-1.11-.85a8.87,8.87,0,0,1-1,.71,6.37,6.37,0,0,1-1.11.55,7,7,0,0,1-1.23.36,6.77,6.77,0,0,1-1.39.13,7.07,7.07,0,0,1-1.33-.12,5.53,5.53,0,0,1-1.17-.36,3.81,3.81,0,0,1-1-.57,3.63,3.63,0,0,1-.73-.79,3.45,3.45,0,0,1-.45-1A4.12,4.12,0,0,1,157.1,46.92Zm2-.19a2.83,2.83,0,0,0,.19,1.07,2.27,2.27,0,0,0,.58.83,2.67,2.67,0,0,0,1,.55,4.08,4.08,0,0,0,1.32.19,4.41,4.41,0,0,0,.89-.09,5.36,5.36,0,0,0,.83-.26,4.94,4.94,0,0,0,.76-.39,5.65,5.65,0,0,0,.66-.49c-.39-.33-.78-.68-1.16-1s-.75-.73-1.11-1.09l-1-1.09c-.33-.36-.63-.72-.91-1.06a7,7,0,0,0-.93.71,3.78,3.78,0,0,0-.6.71,2.17,2.17,0,0,0-.33.71A2.55,2.55,0,0,0,159.11,46.73ZM160.4,39a2.27,2.27,0,0,0,.09.62,3.31,3.31,0,0,0,.25.65c.12.23.26.47.43.73s.36.56.6.88c.54-.31,1-.59,1.37-.85a5.33,5.33,0,0,0,.88-.74,2.36,2.36,0,0,0,.49-.72,1.94,1.94,0,0,0,.15-.76,1.67,1.67,0,0,0-.12-.62,1.25,1.25,0,0,0-.37-.52,1.79,1.79,0,0,0-.65-.37,2.88,2.88,0,0,0-.94-.13,2.93,2.93,0,0,0-1,.15,2.09,2.09,0,0,0-.67.4,1.79,1.79,0,0,0-.39.59A2,2,0,0,0,160.4,39Zm19.84,11.51a.24.24,0,0,1,0,.15.28.28,0,0,1-.15.1.81.81,0,0,1-.28.07,5.07,5.07,0,0,1-.9,0,1,1,0,0,1-.29-.07.22.22,0,0,1-.14-.1.24.24,0,0,1,0-.15V35.52a.29.29,0,0,1,0-.16.27.27,0,0,1,.14-.11,1,1,0,0,1,.29-.06,3.39,3.39,0,0,1,.9,0,.84.84,0,0,1,.28.06.37.37,0,0,1,.15.11.29.29,0,0,1,0,.16Zm12-5.47a.75.75,0,0,1-.22.62.78.78,0,0,1-.5.19h-6.63a6.25,6.25,0,0,0,.17,1.5,2.92,2.92,0,0,0,.56,1.16,2.58,2.58,0,0,0,1,.73,3.85,3.85,0,0,0,1.53.26,6.29,6.29,0,0,0,1.29-.12,6.42,6.42,0,0,0,1-.26c.27-.1.5-.18.67-.26a1.11,1.11,0,0,1,.4-.12.23.23,0,0,1,.14,0,.4.4,0,0,1,.1.12.8.8,0,0,1,0,.22,3.33,3.33,0,0,1,0,.34,1.93,1.93,0,0,1,0,.25.58.58,0,0,1,0,.19.88.88,0,0,1,0,.15,1.13,1.13,0,0,1-.1.13,1.46,1.46,0,0,1-.37.2,5.73,5.73,0,0,1-.78.27,10.53,10.53,0,0,1-1.11.24A8.2,8.2,0,0,1,188,51a6.21,6.21,0,0,1-2.17-.35,4,4,0,0,1-1.57-1,4.2,4.2,0,0,1-1-1.71,7.8,7.8,0,0,1-.33-2.39,7.36,7.36,0,0,1,.34-2.33,5,5,0,0,1,1-1.76,4.23,4.23,0,0,1,1.53-1.1,5.44,5.44,0,0,1,4,0,4,4,0,0,1,1.37,1,4.07,4.07,0,0,1,.79,1.5,7,7,0,0,1,.25,1.86Zm-1.86-.55a3.33,3.33,0,0,0-.64-2.28,2.48,2.48,0,0,0-2-.83,2.73,2.73,0,0,0-1.21.26,2.62,2.62,0,0,0-.86.68,3,3,0,0,0-.54,1,4.25,4.25,0,0,0-.22,1.18Zm6.82-2.8v5.61a3.13,3.13,0,0,0,.31,1.57,1.16,1.16,0,0,0,1.1.53,2.16,2.16,0,0,0,.46-.05l.36-.11.26-.1a.46.46,0,0,1,.21-.05.19.19,0,0,1,.1,0s.06,0,.08.1a.81.81,0,0,1,.05.21,3.11,3.11,0,0,1,0,.34,2.27,2.27,0,0,1,0,.51.57.57,0,0,1-.14.28,1,1,0,0,1-.27.17,2.09,2.09,0,0,1-.4.13l-.49.08a2.92,2.92,0,0,1-.51,0,3.87,3.87,0,0,1-1.35-.21,2.19,2.19,0,0,1-.91-.63,2.57,2.57,0,0,1-.52-1.06,6.13,6.13,0,0,1-.16-1.51V41.64h-1.41a.31.31,0,0,1-.27-.18,1.23,1.23,0,0,1-.1-.58,1.79,1.79,0,0,1,0-.36.68.68,0,0,1,.07-.24.28.28,0,0,1,.12-.14.38.38,0,0,1,.16,0h1.4V37.71a.23.23,0,0,1,0-.14.24.24,0,0,1,.14-.12,1,1,0,0,1,.29-.07,2.59,2.59,0,0,1,.44,0,2.86,2.86,0,0,1,.46,0,.88.88,0,0,1,.28.07.31.31,0,0,1,.15.12.23.23,0,0,1,0,.14V40.1h5V37.23a.29.29,0,0,1,0-.16.28.28,0,0,1,.15-.1,1.37,1.37,0,0,1,.29-.07,2.81,2.81,0,0,1,.45,0,2.68,2.68,0,0,1,.44,0,1.37,1.37,0,0,1,.29.07.28.28,0,0,1,.15.1.29.29,0,0,1,0,.16V40.1h6.48a.54.54,0,0,1,.45.16.63.63,0,0,1,.13.44v9.76a.25.25,0,0,1,0,.15.28.28,0,0,1-.15.1.88.88,0,0,1-.28.07,3,3,0,0,1-.46,0,2.89,2.89,0,0,1-.44,0,1,1,0,0,1-.29-.07.28.28,0,0,1-.15-.1.33.33,0,0,1,0-.15V41.64H204v5.61a3.25,3.25,0,0,0,.31,1.57,1.15,1.15,0,0,0,1.09.53,2,2,0,0,0,.45-.05,2.74,2.74,0,0,0,.37-.11l.27-.1a.45.45,0,0,1,.2-.05.2.2,0,0,1,.11,0s0,0,.07.1a.81.81,0,0,1,.05.21,1.72,1.72,0,0,1,0,.34,2.27,2.27,0,0,1,0,.51.57.57,0,0,1-.14.28.9.9,0,0,1-.26.17,1.88,1.88,0,0,1-.4.13l-.49.08a3.08,3.08,0,0,1-.51,0,3.83,3.83,0,0,1-1.35-.21,2.07,2.07,0,0,1-.91-.63,2.57,2.57,0,0,1-.52-1.06,5.66,5.66,0,0,1-.17-1.51V41.64ZM211.3,37a1.19,1.19,0,0,1-.25.88,1.28,1.28,0,0,1-.9.23,1.33,1.33,0,0,1-.89-.22A1.22,1.22,0,0,1,209,37a1.17,1.17,0,0,1,.25-.88,1.28,1.28,0,0,1,.9-.24,1.32,1.32,0,0,1,.89.23A1.19,1.19,0,0,1,211.3,37Zm11.88,13.46a.25.25,0,0,1-.05.15.3.3,0,0,1-.14.1.88.88,0,0,1-.28.07,3,3,0,0,1-.45,0,3,3,0,0,1-.46,0,.88.88,0,0,1-.28-.07.26.26,0,0,1-.14-.1.25.25,0,0,1,0-.15V44.57a5.79,5.79,0,0,0-.13-1.39,3,3,0,0,0-.39-.91,1.87,1.87,0,0,0-.67-.58,2.16,2.16,0,0,0-.94-.2,2.42,2.42,0,0,0-1.39.49,7.32,7.32,0,0,0-1.45,1.45v7a.25.25,0,0,1-.05.15.3.3,0,0,1-.14.1,1,1,0,0,1-.28.07,3.1,3.1,0,0,1-.46,0,3,3,0,0,1-.45,0,.88.88,0,0,1-.28-.07.25.25,0,0,1-.15-.1.24.24,0,0,1,0-.15V40.4a.41.41,0,0,1,0-.16.42.42,0,0,1,.14-.11.83.83,0,0,1,.26-.06,2.37,2.37,0,0,1,.41,0,2.49,2.49,0,0,1,.41,0,.7.7,0,0,1,.25.06.5.5,0,0,1,.13.11.42.42,0,0,1,0,.16v1.33a6.15,6.15,0,0,1,1.69-1.4,3.69,3.69,0,0,1,1.71-.44,3.88,3.88,0,0,1,1.69.34,3,3,0,0,1,1.11.91,3.66,3.66,0,0,1,.61,1.34,8.07,8.07,0,0,1,.19,1.84Zm11.76-9.61a1.17,1.17,0,0,1-.11.57.32.32,0,0,1-.27.17h-1.44a2.4,2.4,0,0,1,.55.89,3.38,3.38,0,0,1,.15,1,4,4,0,0,1-.28,1.55,3,3,0,0,1-.8,1.13,3.48,3.48,0,0,1-1.23.71,5,5,0,0,1-1.59.25,4.09,4.09,0,0,1-1.17-.17,2.32,2.32,0,0,1-.85-.4,1.45,1.45,0,0,0-.33.45,1.29,1.29,0,0,0-.13.6.79.79,0,0,0,.36.65,1.74,1.74,0,0,0,1,.27l2.63.12a5.39,5.39,0,0,1,1.37.2,3.57,3.57,0,0,1,1.09.53,2.4,2.4,0,0,1,1,2,3,3,0,0,1-1.18,2.43,4.55,4.55,0,0,1-1.53.74,7.52,7.52,0,0,1-2.19.28,8.8,8.8,0,0,1-2.07-.21,4.61,4.61,0,0,1-1.41-.56,2.22,2.22,0,0,1-.79-.86,2.45,2.45,0,0,1-.25-1.08,2.82,2.82,0,0,1,.09-.71,2.38,2.38,0,0,1,.28-.66,2.82,2.82,0,0,1,.46-.6,6,6,0,0,1,.63-.57,1.88,1.88,0,0,1-.81-.7,1.68,1.68,0,0,1-.27-.92,2.71,2.71,0,0,1,.28-1.22,4.37,4.37,0,0,1,.7-1,3.09,3.09,0,0,1-.55-.93,3.4,3.4,0,0,1-.2-1.26,3.78,3.78,0,0,1,.29-1.54,3.17,3.17,0,0,1,.8-1.15,3.4,3.4,0,0,1,1.24-.72,4.66,4.66,0,0,1,1.57-.26,7.34,7.34,0,0,1,.85.05,7.18,7.18,0,0,1,.75.14h3a.3.3,0,0,1,.28.19A1.17,1.17,0,0,1,234.94,40.85Zm-2,10.63a1.13,1.13,0,0,0-.53-1A2.76,2.76,0,0,0,231,50.1L228.41,50a5.42,5.42,0,0,0-.59.53,3.33,3.33,0,0,0-.36.48,1.56,1.56,0,0,0-.18.46,1.68,1.68,0,0,0-.05.45A1.16,1.16,0,0,0,228,53a4.61,4.61,0,0,0,2.06.38,5,5,0,0,0,1.4-.16,2.66,2.66,0,0,0,.91-.43,1.53,1.53,0,0,0,.5-.62A1.79,1.79,0,0,0,233,51.48Zm-.92-8a2,2,0,0,0-2.17-2.18,2.28,2.28,0,0,0-.94.18,2,2,0,0,0-.66.49,2.22,2.22,0,0,0-.39.73,3,3,0,0,0-.13.85,2.13,2.13,0,0,0,.57,1.57,2.11,2.11,0,0,0,1.58.57,2.33,2.33,0,0,0,1-.18,1.72,1.72,0,0,0,.67-.48,2.13,2.13,0,0,0,.39-.71A3,3,0,0,0,232.06,43.5Zm18,7a.23.23,0,0,1-.09.2.67.67,0,0,1-.24.1,2.69,2.69,0,0,1-.46,0,2.91,2.91,0,0,1-.47,0,.59.59,0,0,1-.25-.1.25.25,0,0,1-.08-.2v-1a5,5,0,0,1-1.47,1.1,3.89,3.89,0,0,1-1.71.39,4.64,4.64,0,0,1-1.44-.21,2.82,2.82,0,0,1-1.09-.6,2.62,2.62,0,0,1-.71-1,3.13,3.13,0,0,1-.25-1.29,2.92,2.92,0,0,1,.35-1.48,2.89,2.89,0,0,1,1-1,4.8,4.8,0,0,1,1.59-.62,9.66,9.66,0,0,1,2.11-.21h1.39v-.78a4,4,0,0,0-.12-1,1.88,1.88,0,0,0-.4-.74,1.67,1.67,0,0,0-.71-.45,3.32,3.32,0,0,0-1.07-.15,4.22,4.22,0,0,0-1.23.16,6.79,6.79,0,0,0-1,.36c-.27.13-.5.25-.68.36a.9.9,0,0,1-.41.16.29.29,0,0,1-.16,0,.4.4,0,0,1-.11-.14.62.62,0,0,1-.08-.23,2.69,2.69,0,0,1,0-.31,1.78,1.78,0,0,1,0-.44.61.61,0,0,1,.19-.3,2.17,2.17,0,0,1,.52-.35,5.18,5.18,0,0,1,.85-.35,7.3,7.3,0,0,1,1-.27,6.4,6.4,0,0,1,1.15-.11,5.87,5.87,0,0,1,1.85.25,3,3,0,0,1,1.23.72,2.82,2.82,0,0,1,.68,1.18,5.78,5.78,0,0,1,.21,1.64Zm-1.83-4.6h-1.58a6.34,6.34,0,0,0-1.32.13,2.83,2.83,0,0,0-.93.38,1.65,1.65,0,0,0-.54.61,1.86,1.86,0,0,0-.17.81,1.58,1.58,0,0,0,.5,1.24,2,2,0,0,0,1.39.47,2.69,2.69,0,0,0,1.35-.37,6,6,0,0,0,1.3-1.13Zm13.63-5a1.17,1.17,0,0,1-.11.57.32.32,0,0,1-.27.17h-1.44a2.25,2.25,0,0,1,.54.89,3.1,3.1,0,0,1,.16,1,4,4,0,0,1-.28,1.55,3.14,3.14,0,0,1-.8,1.13,3.58,3.58,0,0,1-1.23.71,5,5,0,0,1-1.59.25,4.09,4.09,0,0,1-1.17-.17,2.38,2.38,0,0,1-.86-.4,1.87,1.87,0,0,0-.33.45,1.43,1.43,0,0,0-.12.6.79.79,0,0,0,.36.65,1.72,1.72,0,0,0,1,.27l2.62.12a5.4,5.4,0,0,1,1.38.2,3.4,3.4,0,0,1,1.08.53,2.41,2.41,0,0,1,.72.84,2.47,2.47,0,0,1,.26,1.15,3.1,3.1,0,0,1-.29,1.32,3.24,3.24,0,0,1-.89,1.11,4.55,4.55,0,0,1-1.53.74,7.52,7.52,0,0,1-2.19.28,8.89,8.89,0,0,1-2.08-.21,4.54,4.54,0,0,1-1.4-.56,2.22,2.22,0,0,1-.79-.86,2.32,2.32,0,0,1-.25-1.08,2.82,2.82,0,0,1,.09-.71,2.7,2.7,0,0,1,.27-.66,3.68,3.68,0,0,1,.46-.6,7.36,7.36,0,0,1,.64-.57,2,2,0,0,1-.82-.7,1.75,1.75,0,0,1-.26-.92,2.58,2.58,0,0,1,.28-1.22,4.68,4.68,0,0,1,.69-1,3.07,3.07,0,0,1-.54-.93,3.4,3.4,0,0,1-.2-1.26,3.78,3.78,0,0,1,.29-1.54,3.17,3.17,0,0,1,.8-1.15,3.32,3.32,0,0,1,1.24-.72,4.66,4.66,0,0,1,1.57-.26,7.48,7.48,0,0,1,.85.05,7.18,7.18,0,0,1,.75.14h3a.31.31,0,0,1,.28.19A1.17,1.17,0,0,1,261.87,40.85Zm-2,10.63a1.15,1.15,0,0,0-.53-1,2.77,2.77,0,0,0-1.44-.37l-2.6-.09a4.61,4.61,0,0,0-.59.53,3.33,3.33,0,0,0-.36.48,2,2,0,0,0-.19.46,2.22,2.22,0,0,0,0,.45,1.17,1.17,0,0,0,.74,1.1,4.61,4.61,0,0,0,2.06.38,5.09,5.09,0,0,0,1.4-.16,2.66,2.66,0,0,0,.91-.43,1.62,1.62,0,0,0,.5-.62A1.79,1.79,0,0,0,259.91,51.48Zm-.93-8a2.21,2.21,0,0,0-.56-1.6,2.17,2.17,0,0,0-1.61-.58,2.24,2.24,0,0,0-.93.18,1.88,1.88,0,0,0-1,1.22,2.65,2.65,0,0,0-.13.85,2.13,2.13,0,0,0,.57,1.57,2.11,2.11,0,0,0,1.58.57,2.33,2.33,0,0,0,.95-.18,1.61,1.61,0,0,0,.66-.48,1.83,1.83,0,0,0,.39-.71A2.63,2.63,0,0,0,259,43.5ZM272.63,45a.79.79,0,0,1-.21.62.8.8,0,0,1-.5.19h-6.63a5.78,5.78,0,0,0,.17,1.5,2.92,2.92,0,0,0,.56,1.16,2.48,2.48,0,0,0,1,.73,3.91,3.91,0,0,0,1.54.26,6.12,6.12,0,0,0,1.28-.12,5.83,5.83,0,0,0,1-.26c.28-.1.5-.18.68-.26a1.06,1.06,0,0,1,.4-.12.23.23,0,0,1,.14,0,.27.27,0,0,1,.09.12.8.8,0,0,1,.05.22,3,3,0,0,1,0,.34,1.93,1.93,0,0,1,0,.25l0,.19a.47.47,0,0,1-.06.15.57.57,0,0,1-.1.13,1.52,1.52,0,0,1-.36.2,5.73,5.73,0,0,1-.78.27,10.53,10.53,0,0,1-1.11.24,8.39,8.39,0,0,1-1.35.11,6.31,6.31,0,0,1-2.18-.35,4,4,0,0,1-1.57-1,4.44,4.44,0,0,1-1-1.71,7.81,7.81,0,0,1-.32-2.39,7.67,7.67,0,0,1,.33-2.33,5.16,5.16,0,0,1,1-1.76,4.23,4.23,0,0,1,1.53-1.1,4.92,4.92,0,0,1,2-.39,4.84,4.84,0,0,1,2,.38,3.78,3.78,0,0,1,1.37,1,4.07,4.07,0,0,1,.79,1.5,6.58,6.58,0,0,1,.25,1.86Zm-1.85-.55a3.39,3.39,0,0,0-.65-2.28,2.47,2.47,0,0,0-2-.83,2.65,2.65,0,0,0-1.2.26,2.56,2.56,0,0,0-.87.68,3.38,3.38,0,0,0-.54,1,3.9,3.9,0,0,0-.21,1.18Zm13.32,6a.24.24,0,0,1,0,.15.28.28,0,0,1-.15.1.81.81,0,0,1-.28.07,2.76,2.76,0,0,1-.44,0,3,3,0,0,1-.46,0,.88.88,0,0,1-.28-.07.28.28,0,0,1-.15-.1.24.24,0,0,1,0-.15V44.57a6.36,6.36,0,0,0-.13-1.39,2.8,2.8,0,0,0-.4-.91,1.76,1.76,0,0,0-.66-.58,2.18,2.18,0,0,0-.95-.2,2.42,2.42,0,0,0-1.38.49,7.61,7.61,0,0,0-1.46,1.45v7a.24.24,0,0,1,0,.15.28.28,0,0,1-.15.1.81.81,0,0,1-.28.07,5.07,5.07,0,0,1-.9,0,1,1,0,0,1-.29-.07.22.22,0,0,1-.14-.1.24.24,0,0,1,0-.15V40.4a.41.41,0,0,1,0-.16.34.34,0,0,1,.14-.11.76.76,0,0,1,.25-.06,2.56,2.56,0,0,1,.42,0,2.49,2.49,0,0,1,.41,0,.76.76,0,0,1,.25.06.5.5,0,0,1,.13.11.41.41,0,0,1,0,.16v1.33a6.32,6.32,0,0,1,1.7-1.4,3.68,3.68,0,0,1,1.7-.44,3.93,3.93,0,0,1,1.7.34,3,3,0,0,1,1.11.91,3.66,3.66,0,0,1,.61,1.34,8.12,8.12,0,0,1,.18,1.84Zm8.39-.74a2.17,2.17,0,0,1-.05.51.56.56,0,0,1-.13.28.84.84,0,0,1-.27.17,2,2,0,0,1-.41.13l-.48.08a3,3,0,0,1-.52,0,3.81,3.81,0,0,1-1.34-.21,2.23,2.23,0,0,1-.92-.63,2.7,2.7,0,0,1-.52-1.06,6.66,6.66,0,0,1-.16-1.51V41.64h-1.41a.29.29,0,0,1-.26-.18,1.21,1.21,0,0,1-.11-.58,1.79,1.79,0,0,1,0-.36,1,1,0,0,1,.08-.24.27.27,0,0,1,.11-.14.47.47,0,0,1,.17,0h1.39V37.71a.33.33,0,0,1,0-.14.31.31,0,0,1,.15-.12.88.88,0,0,1,.28-.07,2.81,2.81,0,0,1,.45,0,2.86,2.86,0,0,1,.46,0,.88.88,0,0,1,.28.07.33.33,0,0,1,.14.12.24.24,0,0,1,.05.14V40.1h2.58a.42.42,0,0,1,.16,0,.33.33,0,0,1,.11.14.67.67,0,0,1,.08.24,3.36,3.36,0,0,1,0,.36,1.23,1.23,0,0,1-.1.58.31.31,0,0,1-.27.18h-2.58v5.61a3.26,3.26,0,0,0,.3,1.57,1.19,1.19,0,0,0,1.11.53,2,2,0,0,0,.45-.05,2.22,2.22,0,0,0,.36-.11,2,2,0,0,0,.27-.1.42.42,0,0,1,.2-.05.23.23,0,0,1,.11,0,.17.17,0,0,1,.08.1l.05.21A3.11,3.11,0,0,1,292.49,49.72Zm8.75-2a3.17,3.17,0,0,1-.28,1.37,2.7,2.7,0,0,1-.81,1,3.59,3.59,0,0,1-1.25.63,5.79,5.79,0,0,1-1.6.21,6.83,6.83,0,0,1-1-.08,6.13,6.13,0,0,1-.87-.22,4.62,4.62,0,0,1-.65-.26,1.85,1.85,0,0,1-.39-.26.67.67,0,0,1-.18-.31,2,2,0,0,1-.06-.55,3.53,3.53,0,0,1,0-.36c0-.09,0-.17.06-.23a.22.22,0,0,1,.1-.13.29.29,0,0,1,.14,0,.8.8,0,0,1,.36.15c.16.1.36.21.59.33a5.52,5.52,0,0,0,.83.33,3.73,3.73,0,0,0,1.11.15,3.2,3.2,0,0,0,.85-.1,2,2,0,0,0,.66-.29,1.29,1.29,0,0,0,.43-.5,1.59,1.59,0,0,0,.15-.72,1.11,1.11,0,0,0-.22-.71,1.92,1.92,0,0,0-.57-.52,4.35,4.35,0,0,0-.81-.39l-.92-.37a7.84,7.84,0,0,1-.93-.43,3.62,3.62,0,0,1-.81-.58,2.56,2.56,0,0,1-.57-.83,2.71,2.71,0,0,1-.22-1.15,2.77,2.77,0,0,1,.23-1.14,2.55,2.55,0,0,1,.69-1,3.31,3.31,0,0,1,1.14-.65,4.62,4.62,0,0,1,1.61-.25,4.4,4.4,0,0,1,.8.07,4.62,4.62,0,0,1,.73.17,3.75,3.75,0,0,1,.55.21,2.9,2.9,0,0,1,.35.21.43.43,0,0,1,.15.16.34.34,0,0,1,.06.15c0,.06,0,.12,0,.21a2.36,2.36,0,0,1,0,.3,3.25,3.25,0,0,1,0,.33,1.14,1.14,0,0,1,0,.23.34.34,0,0,1-.1.13.24.24,0,0,1-.12,0,.63.63,0,0,1-.29-.12,4.25,4.25,0,0,0-.49-.26,5.68,5.68,0,0,0-.71-.26,3.05,3.05,0,0,0-.94-.13,2.86,2.86,0,0,0-.82.11,1.56,1.56,0,0,0-.59.3,1.35,1.35,0,0,0-.35.47,1.36,1.36,0,0,0-.11.58,1.17,1.17,0,0,0,.22.73,2.09,2.09,0,0,0,.58.52,4.82,4.82,0,0,0,.82.4l.93.37c.32.13.63.27.94.43a3.17,3.17,0,0,1,.82.57,2.61,2.61,0,0,1,.58.8A2.73,2.73,0,0,1,301.24,47.72Z"/><rect class="cls-2" width="85.85" height="85.85" rx="15.21" ry="15.21"/><path class="cls-1" d="M16.26,57.69a.52.52,0,0,1-.09.31.81.81,0,0,1-.3.22,2.18,2.18,0,0,1-.58.13,7.69,7.69,0,0,1-.94,0,7.51,7.51,0,0,1-.91,0,2.37,2.37,0,0,1-.59-.13.73.73,0,0,1-.3-.22.59.59,0,0,1-.08-.31V37.05a.61.61,0,0,1,.08-.3.6.6,0,0,1,.3-.23,2.33,2.33,0,0,1,.59-.14,7.51,7.51,0,0,1,.91-.05,7.69,7.69,0,0,1,.94.05,2.14,2.14,0,0,1,.58.14.65.65,0,0,1,.3.23.53.53,0,0,1,.09.3Zm.43-27.62a2.46,2.46,0,0,1-.5,1.81,2.68,2.68,0,0,1-1.86.49,2.61,2.61,0,0,1-1.82-.48,2.41,2.41,0,0,1-.5-1.77,2.51,2.51,0,0,1,.51-1.82,2.7,2.7,0,0,1,1.86-.48,2.69,2.69,0,0,1,1.82.47,2.46,2.46,0,0,1,.49,1.78"/><path class="cls-1" d="M34.58,43.42a4.5,4.5,0,0,0-1.15-3.29A4.4,4.4,0,0,0,30.14,39a4.54,4.54,0,0,0-1.92.37,3.69,3.69,0,0,0-1.35,1,4.3,4.3,0,0,0-.81,1.47,6,6,0,0,0-.26,1.76,4,4,0,0,0,4.4,4.38,4.85,4.85,0,0,0,1.95-.36,3.62,3.62,0,0,0,1.37-1,4.08,4.08,0,0,0,.8-1.46,5.47,5.47,0,0,0,.26-1.72m1.91,16.36a2.33,2.33,0,0,0-1.09-2.06A5.55,5.55,0,0,0,32.45,57l-5.34-.19a10.48,10.48,0,0,0-1.21,1.09,5.9,5.9,0,0,0-.74,1,3,3,0,0,0-.38.93,4.17,4.17,0,0,0-.1.94A2.44,2.44,0,0,0,26.19,63a9.52,9.52,0,0,0,4.22.77,10.62,10.62,0,0,0,2.88-.34,5.42,5.42,0,0,0,1.87-.88,3.35,3.35,0,0,0,1-1.26,3.65,3.65,0,0,0,.31-1.49M40.5,38a2.34,2.34,0,0,1-.21,1.15.66.66,0,0,1-.57.36h-3a4.7,4.7,0,0,1,1.13,1.82,6.9,6.9,0,0,1,.32,2.08,8.17,8.17,0,0,1-.57,3.16A6.39,6.39,0,0,1,36,48.89a7.32,7.32,0,0,1-2.54,1.46,9.87,9.87,0,0,1-3.26.5,8.47,8.47,0,0,1-2.39-.33,4.89,4.89,0,0,1-1.76-.84,3.66,3.66,0,0,0-.67.94,2.67,2.67,0,0,0-.27,1.22,1.57,1.57,0,0,0,.75,1.33,3.6,3.6,0,0,0,2,.57l5.39.23a11.12,11.12,0,0,1,2.82.43,6.91,6.91,0,0,1,2.23,1.08,4.82,4.82,0,0,1,2,4.09,6.48,6.48,0,0,1-.59,2.71,6.31,6.31,0,0,1-1.83,2.26,9,9,0,0,1-3.13,1.53,15.78,15.78,0,0,1-4.49.56A18.57,18.57,0,0,1,26,66.21a9.15,9.15,0,0,1-2.88-1.16,4.51,4.51,0,0,1-1.63-1.75,5,5,0,0,1-.5-2.22,5.9,5.9,0,0,1,.18-1.46,5.57,5.57,0,0,1,.56-1.36A6.38,6.38,0,0,1,22.65,57a11.44,11.44,0,0,1,1.29-1.16,4.11,4.11,0,0,1-1.66-1.45,3.51,3.51,0,0,1-.54-1.88,5.38,5.38,0,0,1,.57-2.5,8.49,8.49,0,0,1,1.43-2,6.84,6.84,0,0,1-1.13-1.92,7.27,7.27,0,0,1-.41-2.58,8.09,8.09,0,0,1,.59-3.16,6.72,6.72,0,0,1,1.66-2.37A7.29,7.29,0,0,1,27,36.57a9.84,9.84,0,0,1,3.22-.51,13.81,13.81,0,0,1,1.76.1,12.83,12.83,0,0,1,1.52.29h6.24a.62.62,0,0,1,.59.38A2.65,2.65,0,0,1,40.5,38"/><path class="cls-1" d="M49.15,57.69a.52.52,0,0,1-.09.31.73.73,0,0,1-.3.22,2.19,2.19,0,0,1-.57.13,7.94,7.94,0,0,1-.94,0,7.57,7.57,0,0,1-.92,0,2.48,2.48,0,0,1-.59-.13.63.63,0,0,1-.29-.22.51.51,0,0,1-.08-.31V27a.57.57,0,0,1,.08-.32.58.58,0,0,1,.29-.23,2.48,2.48,0,0,1,.59-.13,6,6,0,0,1,.92-.05,6.25,6.25,0,0,1,.94.05,2.19,2.19,0,0,1,.57.13.67.67,0,0,1,.3.23.57.57,0,0,1,.09.32Z"/><path class="cls-1" d="M73.83,57.69a.51.51,0,0,1-.08.31.65.65,0,0,1-.28.22,2.14,2.14,0,0,1-.54.13,6.2,6.2,0,0,1-.82,0,6.52,6.52,0,0,1-.86,0,2,2,0,0,1-.53-.13.58.58,0,0,1-.26-.22.71.71,0,0,1-.07-.31V55a12.83,12.83,0,0,1-3.48,2.84,7.46,7.46,0,0,1-3.49.9A7.88,7.88,0,0,1,59.94,58a6.08,6.08,0,0,1-2.28-1.87,7.53,7.53,0,0,1-1.25-2.75A16.69,16.69,0,0,1,56,49.57V37.05a.63.63,0,0,1,.08-.32.71.71,0,0,1,.31-.22,1.77,1.77,0,0,1,.6-.14,10.49,10.49,0,0,1,1.83,0,1.7,1.7,0,0,1,.59.14.77.77,0,0,1,.31.22.55.55,0,0,1,.09.32v12A13.27,13.27,0,0,0,60.1,52a5.49,5.49,0,0,0,.81,1.85A3.73,3.73,0,0,0,62.27,55a4.22,4.22,0,0,0,1.93.42,4.78,4.78,0,0,0,2.83-1,15.87,15.87,0,0,0,3-3V37.05a.63.63,0,0,1,.08-.32.69.69,0,0,1,.32-.22,1.7,1.7,0,0,1,.58-.14,10.72,10.72,0,0,1,1.85,0,1.58,1.58,0,0,1,.57.14.85.85,0,0,1,.31.22.49.49,0,0,1,.1.32Z"/></g></g></g></svg>